<?xml version="1.0" encoding="utf-8"?>
<!-- Generator: Adobe Illustrator 19.0.0, SVG Export Plug-In . SVG Version: 6.00 Build 0)  -->
<svg version="1.1" id="Layer_1" xmlns="http://www.w3.org/2000/svg" xmlns:xlink="http://www.w3.org/1999/xlink" x="0px" y="0px"
	 viewBox="0 0 14400 14400" style="enable-background:new 0 0 14400 14400;" xml:space="preserve">
<style type="text/css">
	.st0{fill:#FFFFFF;stroke:#000000;stroke-miterlimit:10;}
</style>
<path id="XMLID_4_" class="st0" d="M7211.4,7199.5l22.1-22.1c3.3-3.3,3.3-8.6,0-11.9c-3.3-3.3-8.6-3.3-11.9,0l-22.1,22.1l-22.1-22.1
	c-3.3-3.3-8.6-3.3-11.9,0c-3.3,3.3-3.3,8.6,0,11.9l22.1,22.1l-22.1,22.1c-3.3,3.3-3.3,8.6,0,11.9c3.3,3.3,8.6,3.3,11.9,0l22.1-22.1
	l22.1,22.1c3.3,3.3,8.6,3.3,11.9,0c3.3-3.3,3.3-8.6,0-11.9L7211.4,7199.5z"/>
</svg>
